<svg data-logo="logo" xmlns="http://www.w3.org/2000/svg" viewBox="0 0 223 42">
        <g style="opacity: 1;" id="logogram" transform="translate(0, 1) rotate(0)"><path d="M28.7089 33.1053L1.9434 14.6424C-0.768963 12.7715 0.15306 8.87601 3.53531 7.95996L31.9823 0.239132C32.5849 0.0216955 33.2306 -0.0488885 33.866 0.0332432C34.5013 0.115375 35.1079 0.34785 35.6355 0.711378C36.1629 1.07491 36.5961 1.559 36.899 2.12348C37.2018 2.68795 37.3658 3.31654 37.3771 3.95706L35.6912 30.1393C35.4913 33.247 31.4213 34.9762 28.7089 33.1053Z" fill="#708993"></path><path d="M20.2197 37.6632L4.45132 6.82618C4.09087 6.12072 3.93226 5.32941 3.99297 4.53953C4.05367 3.74965 4.33135 2.99187 4.79536 2.34978C5.25939 1.70769 5.89172 1.20622 6.62264 0.900668C7.35356 0.595117 8.15466 0.497365 8.93761 0.618198L38.1604 5.12834C38.8331 5.23219 39.4717 5.49425 40.0236 5.89298C40.5753 6.29172 41.0245 6.81572 41.3344 7.42191C41.6441 8.0281 41.8057 8.69917 41.8055 9.37994C41.8054 10.0607 41.6437 10.7317 41.3338 11.3378L27.8719 37.6647C27.5104 38.3681 26.962 38.9583 26.2869 39.3703C25.6118 39.7823 24.8363 40.0002 24.0454 40C23.2545 39.9999 22.479 39.7817 21.804 39.3695C21.1291 38.9571 20.5809 38.3668 20.2197 37.6632Z" fill="#A1C2BD"></path><path d="M37.3055 4.9955L22.7382 2.74713L4.85269 7.60342L11.9917 21.5695L28.7089 33.1053C29.0777 33.357 29.4834 33.5497 29.9114 33.6767L36.2612 21.2592L37.3055 4.9955Z" fill="#E7F2EF"></path></g>
        <g style="opacity: 1;" id="logotype" transform="translate(48, 1)"><path fill="#fff" d="M13.84 33L8.38 33L8.38 8.29L12.30 8.29L22.03 23.45L20.04 23.45L29.73 8.29L33.69 8.29L33.69 33L28.19 33L28.19 17.56L29.17 17.81L22.84 27.68L19.20 27.68L12.89 17.81L13.84 17.56L13.84 33ZM45.41 33.38L45.41 33.38Q42.78 33.38 40.67 32.21Q38.55 31.04 37.32 29.01Q36.10 26.98 36.10 24.46L36.10 24.46Q36.10 21.94 37.32 19.95Q38.55 17.95 40.65 16.78Q42.75 15.60 45.41 15.60L45.41 15.60Q48.07 15.60 50.17 16.76Q52.27 17.91 53.50 19.93Q54.72 21.94 54.72 24.46L54.72 24.46Q54.72 26.98 53.50 29.01Q52.27 31.04 50.17 32.21Q48.07 33.38 45.41 33.38ZM45.41 28.52L45.41 28.52Q46.56 28.52 47.44 28.01Q48.31 27.50 48.79 26.58Q49.26 25.65 49.26 24.46L49.26 24.46Q49.26 23.27 48.77 22.38Q48.28 21.48 47.42 20.98Q46.56 20.47 45.41 20.47L45.41 20.47Q44.29 20.47 43.41 20.98Q42.54 21.48 42.05 22.39Q41.56 23.30 41.56 24.49L41.56 24.49Q41.56 25.65 42.05 26.58Q42.54 27.50 43.41 28.01Q44.29 28.52 45.41 28.52ZM62.03 33L56.68 33L56.68 15.99L62.03 15.99L62.03 33ZM62.03 23.66L62.03 23.66L59.80 21.91Q60.46 18.93 62.03 17.28Q63.61 15.64 66.41 15.64L66.41 15.64Q67.64 15.64 68.56 16.01Q69.49 16.38 70.19 17.14L70.19 17.14L67.00 21.17Q66.66 20.78 66.13 20.57Q65.61 20.36 64.94 20.36L64.94 20.36Q63.61 20.36 62.82 21.19Q62.03 22.01 62.03 23.66ZM80.58 33.35L80.58 33.35Q78.87 33.35 77.44 32.69Q76 32.02 75.09 30.85Q74.18 29.68 74.04 28.17L74.04 28.17L74.04 20.99Q74.18 19.49 75.09 18.27Q76 17.04 77.44 16.34Q78.87 15.64 80.58 15.64L80.58 15.64Q83 15.64 84.87 16.79Q86.75 17.95 87.81 19.95Q88.88 21.94 88.88 24.49L88.88 24.49Q88.88 27.05 87.81 29.04Q86.75 31.04 84.87 32.20Q83 33.35 80.58 33.35ZM76.07 40.17L70.78 40.17L70.78 15.99L76.14 15.99L76.14 20.36L75.27 24.49L76.07 28.63L76.07 40.17ZM79.60 28.52L79.60 28.52Q80.76 28.52 81.62 27.99Q82.47 27.47 82.97 26.56Q83.45 25.65 83.45 24.49L83.45 24.49Q83.45 23.30 82.97 22.39Q82.47 21.48 81.62 20.98Q80.76 20.47 79.64 20.47L79.64 20.47Q78.52 20.47 77.66 20.98Q76.80 21.48 76.31 22.39Q75.83 23.30 75.83 24.49L75.83 24.49Q75.83 25.65 76.30 26.56Q76.77 27.47 77.64 27.99Q78.52 28.52 79.60 28.52ZM107.50 33L102.14 33L102.14 23.30Q102.14 21.98 101.32 21.15Q100.50 20.33 99.24 20.33L99.24 20.33Q98.36 20.33 97.70 20.70Q97.03 21.06 96.65 21.75Q96.27 22.43 96.27 23.30L96.27 23.30L94.20 22.29Q94.20 20.29 95.04 18.79Q95.88 17.28 97.38 16.46Q98.89 15.64 100.85 15.64L100.85 15.64Q102.84 15.64 104.35 16.46Q105.85 17.28 106.68 18.74Q107.50 20.19 107.50 22.11L107.50 22.11L107.50 33ZM96.27 33L90.91 33L90.91 7.59L96.27 7.59L96.27 33ZM126.99 24.00L120.87 24.00L120.87 19.73L126.19 19.73Q127.20 19.73 128.04 19.31Q128.88 18.89 129.38 18.09Q129.86 17.28 129.86 16.13L129.86 16.13Q129.86 15.01 129.38 14.20Q128.88 13.40 128.04 12.98Q127.20 12.56 126.19 12.56L126.19 12.56L120.87 12.56L120.87 8.29L126.99 8.29Q129.34 8.29 131.23 9.23Q133.12 10.18 134.22 11.95Q135.32 13.71 135.32 16.13L135.32 16.13Q135.32 18.54 134.22 20.31Q133.12 22.08 131.23 23.04Q129.34 24.00 126.99 24.00L126.99 24.00ZM122.16 33L116.67 33L116.67 8.29L122.16 8.29L122.16 33ZM143.87 33.35L143.87 33.35Q141.52 33.35 139.68 32.20Q137.84 31.04 136.78 29.04Q135.71 27.05 135.71 24.49L135.71 24.49Q135.71 21.94 136.78 19.95Q137.84 17.95 139.68 16.79Q141.52 15.64 143.87 15.64L143.87 15.64Q145.58 15.64 146.96 16.30Q148.34 16.97 149.22 18.14Q150.09 19.31 150.20 20.82L150.20 20.82L150.20 28.17Q150.09 29.68 149.24 30.85Q148.38 32.02 146.98 32.69Q145.58 33.35 143.87 33.35ZM144.95 28.52L144.95 28.52Q146.67 28.52 147.72 27.38Q148.77 26.24 148.77 24.49L148.77 24.49Q148.77 23.30 148.29 22.39Q147.82 21.48 146.96 20.98Q146.11 20.47 144.99 20.47L144.99 20.47Q143.87 20.47 143.01 20.98Q142.15 21.48 141.64 22.39Q141.13 23.30 141.13 24.49L141.13 24.49Q141.13 25.65 141.63 26.56Q142.12 27.47 142.99 27.99Q143.87 28.52 144.95 28.52ZM153.81 33L148.56 33L148.56 28.41L149.36 24.28L148.56 20.16L148.56 15.99L153.81 15.99L153.81 33ZM166.27 33.07L162.13 33.07L155.13 15.99L160.91 15.99L165.36 29.54L163.22 29.54L167.77 15.99L173.55 15.99L166.27 33.07ZM163.25 40.17L157.76 40.17L162.87 29.15L166.27 33.07L163.25 40.17Z"></path></g>
        
      </svg>